<?xml version="1.0" encoding="UTF-8"?>
<svg xmlns="http://www.w3.org/2000/svg" viewBox="0 0 1200 630" width="1200" height="630" version="1.1">
  <!-- Background -->
  <rect width="1200" height="630" fill="#0B0414"/>

  <!-- Subtle corner accent dot, very small -->
  <circle cx="1100" cy="540" r="6" fill="#8B5CF6" opacity="0.8"/>

  <!-- Lid logomark + wordmark, scaled and centered-left -->
  <g transform="translate(120, 190)">
    <g fill="#8B5CF6">
      <path d="M119,3.5h22.5c3.4,0,6.2,2.8,6.2,6.2v70c0,3.3,2.2,5.5,5.8,3l31.8-32.5c2.3-2.3,6-2.3,8.3,0l16.6,16.6c2.3,2.3,2.3,6.1,0,8.4l-29.8,29.5c-6.8,6.8-17.8,6.6-24.4-.4l-40.5-42.8c-1.7-1.8-2.6-4.1-2.6-6.5V9.7c0-3.4,2.8-6.2,6.2-6.2Z"/>
      <path d="M257.5,119.2v22.7c0,3.4-2.8,6.2-6.2,6.2h-69.4c-3.3,0-5.4,2.2-2.9,5.8l32.3,32c2.3,2.3,2.3,6,0,8.3l-16.5,16.8c-2.3,2.3-6,2.3-8.3,0l-29.3-30.1c-6.7-6.9-6.5-18,.4-24.6l42.5-40.8c1.7-1.7,4.1-2.6,6.5-2.6h44.8c3.4,0,6.2,2.8,6.2,6.2h0Z"/>
      <path d="M140.6,258.5h-22.5c-3.4,0-6.2-2.8-6.2-6.2v-70c0-3.3-2.2-5.5-5.8-3l-31.8,32.5c-2.3,2.3-6,2.3-8.3,0l-16.6-16.6c-2.3-2.3-2.3-6.1,0-8.4l29.8-29.5c6.8-6.8,17.8-6.6,24.4.4l40.5,42.8c1.7,1.8,2.6,4.1,2.6,6.5v45.2c0,3.4-2.8,6.2-6.2,6.2h0Z"/>
      <path d="M2.6,142.7v-22.7c0-3.4,2.8-6.2,6.2-6.2h69.4c3.3,0,5.4-2.2,2.9-5.8l-32.3-32c-2.3-2.3-2.3-6,0-8.3l16.5-16.8c2.3-2.3,6-2.3,8.3,0l29.3,30.1c6.7,6.9,6.5,18-.4,24.6l-42.5,40.8c-1.7,1.7-4,2.6-6.5,2.6H8.7c-3.4,0-6.2-2.8-6.2-6.2Z"/>
      <path d="M150.4,128.1l-16-16.1c-2.5-2.5-6.5-2.5-9,0l-16,16.1c-2.5,2.5-2.5,6.6,0,9.1l16,16.1c2.5,2.5,6.5,2.5,9,0l16-16.1c2.5-2.5,2.5-6.6,0-9.1Z"/>
    </g>
    <g fill="#E8E4F0">
      <path d="M328.9,52.3h33.1v139.7h88.4v30.8h-121.5V52.3Z"/>
      <path d="M469.3,56.7c0-12,8.5-20.9,20.4-20.9s20.4,8.9,20.4,20.9-8.5,20.6-20.4,20.6-20.4-8.6-20.4-20.6ZM474.2,94h30.8v128.8h-30.8V94Z"/>
      <path d="M529.5,157.1c0-44.1,32.6-66.5,63.6-66.5s33.6,7.8,42.7,22.2V37.7h30.8v119.7c0,41.7-27.9,68.8-68,68.8s-69-28.2-69-69.1ZM635.8,158.4c0-22.7-15-38.8-37.5-38.8s-37.7,16.2-37.7,38.8,15.3,38.8,37.7,38.8,37.5-16.2,37.5-38.8Z"/>
    </g>
  </g>

  <!-- Tagline -->
  <text x="120" y="540"
        font-family="'Space Grotesk', 'Helvetica Neue', sans-serif"
        font-weight="600"
        font-size="44"
        letter-spacing="-1"
        fill="#E8E4F0">Your customers are your sales team.</text>

  <!-- URL, small and muted -->
  <text x="120" y="580"
        font-family="'Inter', 'Helvetica Neue', sans-serif"
        font-weight="400"
        font-size="20"
        letter-spacing="0.5"
        fill="#9B96AB">docs.lid.pro</text>
</svg>
