<?xml version="1.0" encoding="UTF-8"?>
<svg xmlns="http://www.w3.org/2000/svg" viewBox="0 0 260 262" version="1.1">
  <g fill="#8B5CF6">
    <path d="M119,3.5h22.5c3.4,0,6.2,2.8,6.2,6.2v70c0,3.3,2.2,5.5,5.8,3l31.8-32.5c2.3-2.3,6-2.3,8.3,0l16.6,16.6c2.3,2.3,2.3,6.1,0,8.4l-29.8,29.5c-6.8,6.8-17.8,6.6-24.4-.4l-40.5-42.8c-1.7-1.8-2.6-4.1-2.6-6.5V9.7c0-3.4,2.8-6.2,6.2-6.2Z"/>
    <path d="M257.5,119.2v22.7c0,3.4-2.8,6.2-6.2,6.2h-69.4c-3.3,0-5.4,2.2-2.9,5.8l32.3,32c2.3,2.3,2.3,6,0,8.3l-16.5,16.8c-2.3,2.3-6,2.3-8.3,0l-29.3-30.1c-6.7-6.9-6.5-18,.4-24.6l42.5-40.8c1.7-1.7,4.1-2.6,6.5-2.6h44.8c3.4,0,6.2,2.8,6.2,6.2h0Z"/>
    <path d="M140.6,258.5h-22.5c-3.4,0-6.2-2.8-6.2-6.2v-70c0-3.3-2.2-5.5-5.8-3l-31.8,32.5c-2.3,2.3-6,2.3-8.3,0l-16.6-16.6c-2.3-2.3-2.3-6.1,0-8.4l29.8-29.5c6.8-6.8,17.8-6.6,24.4.4l40.5,42.8c1.7,1.8,2.6,4.1,2.6,6.5v45.2c0,3.4-2.8,6.2-6.2,6.2h0Z"/>
    <path d="M2.6,142.7v-22.7c0-3.4,2.8-6.2,6.2-6.2h69.4c3.3,0,5.4-2.2,2.9-5.8l-32.3-32c-2.3-2.3-2.3-6,0-8.3l16.5-16.8c2.3-2.3,6-2.3,8.3,0l29.3,30.1c6.7,6.9,6.5,18-.4,24.6l-42.5,40.8c-1.7,1.7-4,2.6-6.5,2.6H8.7c-3.4,0-6.2-2.8-6.2-6.2Z"/>
    <path d="M150.4,128.1l-16-16.1c-2.5-2.5-6.5-2.5-9,0l-16,16.1c-2.5,2.5-2.5,6.6,0,9.1l16,16.1c2.5,2.5,6.5,2.5,9,0l16-16.1c2.5-2.5,2.5-6.6,0-9.1Z"/>
  </g>
</svg>
